<?xml version="1.0" encoding="UTF-8"?>
<svg version="1.1" xmlns="http://www.w3.org/2000/svg" width="512" height="512">
<path d="M0 0 C9.71468512 8.36040746 17.98533123 18.69043289 19.34619141 31.89648438 C20.20109533 48.81994424 16.79812797 61.25053515 5.390625 74.046875 C-1.28710022 81.41376047 -8.386603 88.36825963 -15.4375 95.375 C-16.84203142 96.77450423 -18.24633006 98.17424213 -19.65039062 99.57421875 C-23.05591878 102.96884285 -26.46457182 106.36029906 -29.875 109.75 C-29.26555542 110.54881592 -29.26555542 110.54881592 -28.64379883 111.36376953 C-27.83978638 112.4250708 -27.83978638 112.4250708 -27.01953125 113.5078125 C-26.48948486 114.20535645 -25.95943848 114.90290039 -25.41333008 115.62158203 C-20.31889532 122.67019054 -18.37901751 129.38665014 -19.05859375 138.10546875 C-20.30590962 145.57650507 -24.45839454 150.33339454 -29.6875 155.5625 C-36.96985124 160.56019203 -44.45203393 161.80350237 -53.08984375 160.38671875 C-59.26845916 158.79048595 -63.11886768 155.21615875 -67.61328125 150.80859375 C-69.68458342 148.92331527 -71.37410131 147.92242972 -73.875 146.75 C-77.45294452 150.30299372 -81.02741386 153.85943651 -84.59887695 157.41894531 C-85.81117248 158.62625065 -87.0243687 159.83265234 -88.23852539 161.03808594 C-89.99610372 162.78336339 -91.75028209 164.53200052 -93.50390625 166.28125 C-94.03649551 166.80867798 -94.56908478 167.33610596 -95.11781311 167.8795166 C-97.90138517 170.66268436 -100.55414727 173.50584024 -103.11694336 176.49414062 C-107.16808919 181.17106585 -111.52725588 185.51608267 -115.92016602 189.87033081 C-117.41214243 191.34931909 -118.90077553 192.83160502 -120.38867188 194.31469727 C-124.08168154 197.99447387 -127.78017112 201.66872627 -131.47851562 205.34313965 C-134.61570304 208.46045629 -137.75073602 211.57991088 -140.88305664 214.70211792 C-142.33597908 216.14865069 -143.79192281 217.59209167 -145.24804688 219.03540039 C-149.07009773 222.8433895 -152.84816206 226.63949019 -156.36132812 230.73632812 C-160.37250923 235.4114248 -164.73272925 239.72050947 -169.10536194 244.05552673 C-170.63093977 245.56812332 -172.15318086 247.08401202 -173.67468262 248.60070801 C-177.45116982 252.36395801 -181.23313511 256.12168668 -185.01495361 259.87957764 C-188.22259868 263.06735668 -191.42809295 266.25727042 -194.63087463 269.44993591 C-196.11703689 270.92970556 -197.60621996 272.40638565 -199.09558105 273.88293457 C-203.70887844 278.47962935 -208.20339468 283.10941053 -212.42494202 288.07041931 C-214.76150645 290.77682729 -217.27518762 293.29573266 -219.8125 295.8125 C-220.5230957 296.52889648 -220.5230957 296.52889648 -221.24804688 297.25976562 C-238.85105628 314.81589617 -260.43155817 331.33666726 -283.60888672 340.56982422 C-293.60711898 344.56282131 -300.23323083 351.46799779 -307.39550781 359.33837891 C-313.58480421 366.02556767 -318.90355733 369.71545707 -327.94140625 371.28125 C-335.71491739 371.18392905 -341.06548035 369.08765978 -347.625 365.0625 C-352.84746252 359.69496908 -355.9611599 353.05818469 -356.125 345.5625 C-355.89938059 334.94103256 -351.25852107 329.05958023 -343.875 321.75 C-342.81210691 320.78258432 -341.74553948 319.81919382 -340.67578125 318.859375 C-332.87389669 311.72873058 -328.68306056 305.102245 -324.765625 295.31640625 C-313.06095276 266.12277608 -290.15110609 241.60270698 -268.0625 219.875 C-266.00184954 217.84224534 -263.94283413 215.80789638 -261.88679504 213.77047729 C-260.62298098 212.51864228 -259.35651126 211.26947944 -258.0867157 210.02371216 C-255.124405 207.09467835 -252.29075232 204.11650335 -249.57739258 200.95458984 C-245.16904978 195.85324868 -240.38030509 191.14992115 -235.59375 186.40625 C-234.61131622 185.42823581 -233.62918512 184.44991749 -232.64733887 183.47131348 C-229.03780682 179.87501016 -225.42279294 176.28423404 -221.80792236 172.69329834 C-218.7411925 169.64644421 -215.67662086 166.59744874 -212.61476135 163.54570007 C-211.19508843 162.13241371 -209.77233001 160.72222889 -208.3494873 159.31213379 C-203.30934634 154.29095899 -198.47376951 149.17806193 -193.875 143.75 C-188.232764 137.11893033 -188.232764 137.11893033 -184.76171875 136.17578125 C-181.5069508 136.003225 -179.38701997 136.34659032 -176.8125 138.375 C-175.53436601 141.61293944 -175.98737898 143.39901041 -176.875 146.75 C-178.80517578 149.23193359 -178.80517578 149.23193359 -181.3203125 151.6484375 C-182.23296875 152.54046875 -183.145625 153.4325 -184.0859375 154.3515625 C-185.0567181 155.27664394 -186.0280758 156.20112014 -187 157.125 C-188.87990807 158.94293308 -190.75755469 160.76320792 -192.6328125 162.5859375 C-193.4695752 163.38563965 -194.30633789 164.1853418 -195.16845703 165.00927734 C-197.28026542 167.14775479 -199.2484639 169.30109137 -201.20874023 171.57275391 C-204.88671025 175.81994246 -208.79094613 179.79360787 -212.77734375 183.75 C-213.4999086 184.4711499 -214.22247345 185.1922998 -214.9669342 185.93530273 C-217.24642604 188.20925415 -219.5293924 190.47967954 -221.8125 192.75 C-223.37067506 194.30315235 -224.92861993 195.85653567 -226.48632812 197.41015625 C-230.27989759 201.19277586 -234.07631615 204.9725169 -237.875 208.75 C-234.1162313 213.23401452 -230.2469641 217.52794617 -226.1015625 221.65625 C-225.57412445 222.18464478 -225.0466864 222.71303955 -224.50326538 223.25744629 C-223.39695867 224.36442754 -222.28941213 225.47017104 -221.18066406 226.57470703 C-219.50731271 228.24271066 -217.83935883 229.91597673 -216.171875 231.58984375 C-206.45401492 241.90073396 -206.45401492 241.90073396 -194.875 249.75 C-189.44538852 244.34587639 -184.01980655 238.9377311 -178.59692383 233.52685547 C-176.75408581 231.68902648 -174.91034875 229.85209851 -173.06567383 228.01611328 C-170.40465592 225.36731177 -167.74695597 222.71521875 -165.08984375 220.0625 C-164.27289536 219.25071289 -163.45594696 218.43892578 -162.61424255 217.60253906 C-159.11165905 214.10029461 -155.68099698 210.58833874 -152.45532227 206.828125 C-148.47291606 202.20237425 -144.16317866 197.92487611 -139.82983398 193.62966919 C-138.33785757 192.15068091 -136.84922447 190.66839498 -135.36132812 189.18530273 C-131.66831846 185.50552613 -127.96982888 181.83127373 -124.27148438 178.15686035 C-121.13429696 175.03954371 -117.99926398 171.92008912 -114.86694336 168.79788208 C-113.41402092 167.35134931 -111.95807719 165.90790833 -110.50195312 164.46459961 C-105.9483366 159.92773634 -101.5196813 155.35433788 -97.35678101 150.45443726 C-94.88669528 147.61319006 -92.19452872 145.00131281 -89.5 142.375 C-85.73473773 138.91330978 -85.73473773 138.91330978 -82.875 134.75 C-83.45368835 134.49662872 -84.03237671 134.24325745 -84.62860107 133.98220825 C-87.13745484 132.60603669 -88.80191517 131.06357207 -90.81738281 129.03466797 C-91.57786926 128.27403046 -92.33835571 127.51339294 -93.12188721 126.72970581 C-93.93244568 125.90882477 -94.74300415 125.08794373 -95.578125 124.2421875 C-96.41591492 123.40156769 -97.25370483 122.56094788 -98.11688232 121.69485474 C-100.79098431 119.00955999 -103.45804724 116.31739345 -106.125 113.625 C-107.93704062 111.80292845 -109.74953518 109.98130823 -111.5625 108.16015625 C-116.00528036 103.69532748 -120.44230165 99.22483717 -124.875 94.75 C-125.9841647 95.68560052 -127.09116177 96.62377109 -128.19726562 97.56298828 C-128.81396118 98.08514923 -129.43065674 98.60731018 -130.06604004 99.14529419 C-131.71818797 100.61089401 -133.22507703 102.1175748 -134.71875 103.7421875 C-136.03359375 105.16917969 -136.03359375 105.16917969 -137.375 106.625 C-138.68984375 108.07519531 -138.68984375 108.07519531 -140.03125 109.5546875 C-143.57911127 112.29355842 -145.49366047 112.31331508 -149.875 111.75 C-151.875 110.125 -151.875 110.125 -152.875 107.75 C-152.65920268 102.2779965 -150.34188158 99.47658623 -146.625 95.75 C-145.66011055 94.7513004 -144.69656361 93.75130197 -143.734375 92.75 C-143.26193359 92.26273437 -142.78949219 91.77546875 -142.30273438 91.2734375 C-140.04123134 88.8603426 -137.96467711 86.31252376 -135.875 83.75 C-136.74125 83.110625 -137.6075 82.47125 -138.5 81.8125 C-143.95859317 77.23349057 -148.32526544 70.98419331 -149.69140625 63.9140625 C-150.44186462 55.06823408 -148.75749303 47.91255204 -143.44140625 40.84375 C-138.36768005 35.1008273 -132.00520684 32.4876768 -124.484375 31.40625 C-116.61927935 31.07624599 -110.23421302 33.28727776 -104.3125 38.4375 C-103.15394119 39.52830683 -102.00326297 40.6278856 -100.875 41.75 C-97.75175456 40.36370756 -95.63309293 38.75488429 -93.23046875 36.3359375 C-92.55306641 35.65660156 -91.87566406 34.97726563 -91.17773438 34.27734375 C-90.47970703 33.56707031 -89.78167969 32.85679688 -89.0625 32.125 C-88.37607422 31.43792969 -87.68964844 30.75085937 -86.98242188 30.04296875 C-83.01871656 26.04551381 -79.24258426 21.93637919 -75.5612793 17.67871094 C-67.46432923 8.41768508 -59.21341656 -0.06855153 -47.875 -5.25 C-47.11574219 -5.60578125 -46.35648437 -5.9615625 -45.57421875 -6.328125 C-30.96362807 -11.87964477 -12.4456176 -9.080221 0 0 Z M-64.34790039 25.01708984 C-65.93260494 26.62004856 -67.5251629 28.21486129 -69.11914062 29.80859375 C-76.44115167 37.15559459 -83.23407537 44.78089044 -89.875 52.75 C-73.705 68.92 -57.535 85.09 -40.875 101.75 C-35.93883119 97.71621725 -35.93883119 97.71621725 -31.84765625 93.26953125 C-28.58868096 89.44813868 -25.09254666 85.94743947 -21.49609375 82.44921875 C-20.91703278 81.88284698 -20.3379718 81.31647522 -19.74136353 80.73294067 C-17.32778016 78.37296226 -14.91319067 76.01451813 -12.47875977 73.67602539 C-2.12378253 63.70986318 6.14390437 54.67563895 6.4375 39.625 C6.4255147 28.58387662 3.08618369 21.88827835 -4.50390625 13.94921875 C-12.78169052 6.27147156 -20.92392738 4.26215263 -32.11328125 4.4375 C-45.95537925 5.58741468 -55.09151673 15.65059626 -64.34790039 25.01708984 Z M-133.75 50.3125 C-136.37133373 53.75353418 -136.65311641 56.98900637 -136.41796875 61.234375 C-135.45422623 65.69948422 -132.96353205 68.49718433 -129.875 71.75 C-129.24851562 72.41902344 -128.62203125 73.08804688 -127.9765625 73.77734375 C-125.50009812 76.3272211 -122.990509 78.79794068 -120.28512573 81.10691833 C-114.71583579 85.86023027 -109.536418 90.96970609 -104.38427734 96.16555786 C-102.8380726 97.72473727 -101.28858104 99.28058621 -99.73828125 100.83569336 C-95.89155775 104.69565803 -92.05035284 108.56109902 -88.20898438 112.4263916 C-84.95074304 115.70449442 -81.6903701 118.98044992 -78.42724609 122.25369263 C-76.91423948 123.77309466 -75.4043203 125.29551703 -73.89453125 126.81811523 C-69.24640305 131.49070778 -64.55329623 136.0499135 -59.53125 140.32250977 C-58.4398691 141.26315011 -57.37571131 142.23647213 -56.34375 143.24194336 C-53.08181753 146.31356029 -50.36042883 147.65392993 -45.96484375 147.94921875 C-42.08207287 147.57908545 -39.00161894 146.02652439 -35.875 143.75 C-33.08193863 140.32624735 -32.04778575 137.15603668 -31.875 132.75 C-33.86614331 124.93793985 -38.33290239 120.66361427 -44.0625 115.1875 C-44.88814453 114.37603516 -45.71378906 113.56457031 -46.56445312 112.72851562 C-50.11881294 109.25818323 -53.71393354 105.88349095 -57.48730469 102.65307617 C-62.34729645 98.41823843 -66.86763303 93.8553398 -71.39628792 89.27331161 C-72.94603548 87.7058993 -74.49953424 86.14229126 -76.05406189 84.57962036 C-80.46758229 80.14187837 -84.8752771 75.69838342 -89.27856445 71.25048828 C-91.98727049 68.514865 -94.70093965 65.78424497 -97.41763115 63.05655289 C-98.44369577 62.02432519 -99.46786546 60.99020995 -100.4900074 59.95409775 C-109.35718685 50.17424764 -109.35718685 50.17424764 -120.9375 44.75 C-126.79638216 44.75 -129.44739507 46.47756952 -133.75 50.3125 Z M-248.875 218.75 C-250.33721296 220.31053964 -251.7674173 221.90102663 -253.1875 223.5 C-257.70003368 228.52927154 -262.42341126 233.30304383 -267.2434082 238.03759766 C-275.33589385 245.99419501 -283.03264575 253.90930159 -289.68798828 263.11425781 C-290.90362222 264.78944238 -292.15023068 266.43788987 -293.40234375 268.0859375 C-302.69431462 280.48772121 -309.87258788 294.10048341 -316.27587891 308.1809082 C-318.95849854 314.0764663 -321.56620289 318.7116268 -326.25390625 323.21875 C-327.51170898 324.44658203 -327.51170898 324.44658203 -328.79492188 325.69921875 C-330.55866385 327.40169253 -332.32429533 329.10221096 -334.09179688 330.80078125 C-335.34766602 332.02861328 -335.34766602 332.02861328 -336.62890625 333.28125 C-337.77854858 334.38823242 -337.77854858 334.38823242 -338.95141602 335.51757812 C-341.40566751 338.36586797 -342.77743985 341.03294133 -342.9921875 344.8125 C-342.40339163 349.52286692 -341.39775845 352.3278918 -337.875 355.75 C-334.38835549 358.27481154 -331.07748882 358.18474022 -326.875 357.75 C-321.8857994 355.05684251 -318.55946725 351.36286019 -314.76171875 347.20141602 C-305.59930918 337.29119213 -296.83201287 331.59031887 -284.52734375 326.28125 C-263.05569833 316.9930565 -244.40066358 300.98947314 -227.875 284.75 C-227.04871094 283.93885742 -226.22242188 283.12771484 -225.37109375 282.29199219 C-222.76145887 279.72222133 -220.15965952 277.14487633 -217.5625 274.5625 C-216.33406372 273.3413147 -216.33406372 273.3413147 -215.08081055 272.09545898 C-214.31551025 271.32790283 -213.55020996 270.56034668 -212.76171875 269.76953125 C-212.08326904 269.08995361 -211.40481934 268.41037598 -210.70581055 267.71020508 C-208.9344435 265.81364473 -207.38860453 263.85564173 -205.875 261.75 C-207.22558114 258.73611927 -208.73104775 256.6465323 -211.0703125 254.32421875 C-211.70453125 253.69193359 -212.33875 253.05964844 -212.9921875 252.40820312 C-213.65476563 251.75787109 -214.31734375 251.10753906 -215 250.4375 C-215.9590625 249.4794043 -215.9590625 249.4794043 -216.9375 248.50195312 C-220.13855573 245.3298226 -223.39167193 242.26688934 -226.80859375 239.328125 C-231.37514507 235.38311966 -235.58452209 231.11420028 -239.8125 226.8125 C-241.31934093 225.28031272 -242.82833087 223.75023481 -244.33984375 222.22265625 C-244.995896 221.55500244 -245.65194824 220.88734863 -246.32788086 220.19946289 C-247.64328917 218.63605004 -247.64328917 218.63605004 -248.875 218.75 Z " fill="#000000" transform="translate(427.875,19.25)"/>
<path d="M0 0 C3.64854317 1.88404457 5.24804967 3.85259429 7.66796875 7.1640625 C8.29699097 8.015448 8.29699097 8.015448 8.9387207 8.8840332 C13.24054573 14.76083901 17.35502709 20.77680431 21.4296875 26.8125 C23.52068859 29.90043696 25.73520504 32.87363379 27.98046875 35.8515625 C32.91869472 42.89771227 34.79109287 51.0275092 33.98046875 59.5390625 C31.8485796 70.44722867 26.11439661 79.18645682 16.98046875 85.5390625 C8.8680066 90.55188189 -0.77353147 90.78201806 -10.01953125 89.5390625 C-19.92986679 86.95136378 -26.93641323 82.16946351 -32.33203125 73.5390625 C-37.59511462 64.54135286 -38.38030427 55.0679296 -36.54296875 44.90234375 C-34.12853383 37.72000957 -28.9856078 31.90508625 -24.39453125 26 C-20.122427 20.45476867 -16.28143725 14.61660431 -12.47290039 8.74633789 C-6.04296468 -0.92247068 -6.04296468 -0.92247068 0 0 Z M-3.01953125 18.5390625 C-4.32224888 19.98674903 -4.32224888 19.98674903 -5.59375 21.90625 C-6.34325928 22.98096558 -6.34325928 22.98096558 -7.10791016 24.07739258 C-7.8994751 25.23404419 -7.8994751 25.23404419 -8.70703125 26.4140625 C-9.24505371 27.18967529 -9.78307617 27.96528809 -10.33740234 28.7644043 C-11.41117391 30.31273445 -12.4825058 31.86275965 -13.55126953 33.41455078 C-15.90486134 36.82009716 -18.31494738 40.18560507 -20.71484375 43.55859375 C-24.42744086 49.19418277 -24.75201884 53.85395426 -24.01953125 60.5390625 C-22.25639527 66.71531729 -18.34465999 71.06278303 -13.01953125 74.5390625 C-6.99232881 77.4528756 -0.15825514 77.64365435 6.29296875 75.921875 C12.72304471 73.08359928 17.27210165 67.81343277 20.48046875 61.6640625 C21.82008925 53.29143435 20.06497581 47.6267936 15.29296875 40.6875 C10.97715019 34.81157135 6.63092808 28.96208444 2.19799805 23.17382812 C1.0746257 21.6654862 0.02369758 20.10390575 -1.01953125 18.5390625 C-1.67953125 18.5390625 -2.33953125 18.5390625 -3.01953125 18.5390625 Z " fill="#000000" transform="translate(102.01953125,413.4609375)"/>
<path d="M0 0 C1.9375 1.125 1.9375 1.125 3 3 C3.625 5.6875 3.625 5.6875 3 9 C1.05383549 12.02501657 -1.47221302 14.45613806 -4 17 C-5.10033298 18.12623119 -6.20058719 19.25253935 -7.30078125 20.37890625 C-16.70537453 29.92826372 -16.70537453 29.92826372 -21.75 34.22265625 C-25.13080047 37.14208648 -28.24502665 40.24764644 -31.34765625 43.4609375 C-31.81288193 43.94112839 -32.2781076 44.42131927 -32.75743103 44.9160614 C-34.684355 46.90582815 -36.61004229 48.89594506 -38.51196289 50.90966797 C-39.92249519 52.39918626 -41.35165906 53.86855145 -42.78515625 55.3359375 C-43.61926025 56.20782715 -44.45336426 57.0797168 -45.31274414 57.97802734 C-48.59626965 60.44865133 -50.93256581 60.82440125 -55 61 C-57.59652557 59.52863551 -57.97394111 58.0622518 -59.125 55.3125 C-58.92443945 49.99764544 -55.65234909 47.62211442 -52 44 C-51.0457636 43.02321993 -50.09270755 42.04528583 -49.140625 41.06640625 C-45.01863898 36.86516387 -40.8998842 32.74412723 -36.40625 28.9375 C-32.73021328 25.75731503 -29.36178507 22.34762806 -25.99609375 18.84765625 C-24.91476319 17.73107171 -23.83338231 16.6145359 -22.75195312 15.49804688 C-21.08213052 13.77245659 -19.41851341 12.04239606 -17.76977539 10.29663086 C-16.15298091 8.58891698 -14.51465332 6.90457314 -12.87109375 5.22265625 C-12.3854747 4.69777115 -11.89985565 4.17288605 -11.39952087 3.63209534 C-7.698139 -0.09860924 -5.15492571 -0.62846082 0 0 Z " fill="#000000" transform="translate(287,148)"/>
<path d="M0 0 C2 3 2 3 2 5.8125 C0.67752302 10.02789537 -1.28194963 12.59030589 -5 15 C-8.6122957 15.55102816 -10.74859607 15.72662164 -13.9375 13.875 C-15.59871523 10.94344371 -15.57689518 9.33317216 -15 6 C-10.84822952 -0.38432631 -7.52383684 -3.2016327 0 0 Z " fill="#000000" transform="translate(306,132)"/>
</svg>
